HIERARCHY
ROOT Hips
{
  OFFSET 3.92544 6.39728 0
  CHANNELS 6 Xposition Yposition Zposition Zrotation Xrotation Yrotation
  JOINT BN_Spine_01
  {
    OFFSET 5.06197 -0.168311 0
    CHANNELS 6 Xposition Yposition Zposition Zrotation Xrotation Yrotation
    JOINT BN_Spine_02
    {
      OFFSET 14.8952 0 0
      CHANNELS 6 Xposition Yposition Zposition Zrotation Xrotation Yrotation
      JOINT BN_Spine_03
      {
        OFFSET 14.3786 0 0
        CHANNELS 6 Xposition Yposition Zposition Zrotation Xrotation Yrotation
        JOINT BN__Neck_01
        {
          OFFSET 15.3325 0 0
          CHANNELS 6 Xposition Yposition Zposition Zrotation Xrotation Yrotation
          JOINT BN__Neck_02
          {
            OFFSET 11.0839 0 0
            CHANNELS 6 Xposition Yposition Zposition Zrotation Xrotation Yrotation
            JOINT BN__Neck_R_01
            {
              OFFSET 3.85383 1.1973 3.491
              CHANNELS 6 Xposition Yposition Zposition Zrotation Xrotation Yrotation
              End Site
              {
                OFFSET 0 0 0
              }
            }
            JOINT BN__Neck_L_01
            {
              OFFSET 3.85383 1.1973 -3.49098
              CHANNELS 6 Xposition Yposition Zposition Zrotation Xrotation Yrotation
              End Site
              {
                OFFSET 0 0 0
              }
            }
            JOINT BN_Head_01
            {
              OFFSET 9.67523 0 0
              CHANNELS 6 Xposition Yposition Zposition Zrotation Xrotation Yrotation
              JOINT BN_Mouth_01
              {
                OFFSET 1.08197 -0.588672 0
                CHANNELS 6 Xposition Yposition Zposition Zrotation Xrotation Yrotation
                JOINT BN_Tongue_01
                {
                  OFFSET 2.17792 0.065941 0
                  CHANNELS 6 Xposition Yposition Zposition Zrotation Xrotation Yrotation
                  JOINT BN_Tongue_02
                  {
                    OFFSET 3.80658 -0.000201226 0
                    CHANNELS 6 Xposition Yposition Zposition Zrotation Xrotation Yrotation
                    End Site
                    {
                      OFFSET 0 0 0
                    }
                  }
                }
              }
            }
          }
        }
      }
    }
  }
  JOINT BN_Tail_01
  {
    OFFSET 4.67587 -0.164094 0
    CHANNELS 6 Xposition Yposition Zposition Zrotation Xrotation Yrotation
    JOINT BN_Tail_02
    {
      OFFSET 13.1147 2.52724e-005 0
      CHANNELS 6 Xposition Yposition Zposition Zrotation Xrotation Yrotation
      JOINT BN_Tail_03
      {
        OFFSET 13.4995 9.10759e-005 0
        CHANNELS 6 Xposition Yposition Zposition Zrotation Xrotation Yrotation
        JOINT BN_Tail_04
        {
          OFFSET 13.2851 0 0
          CHANNELS 6 Xposition Yposition Zposition Zrotation Xrotation Yrotation
          JOINT BN_Tail_05
          {
            OFFSET 14.6528 0.000106812 0
            CHANNELS 6 Xposition Yposition Zposition Zrotation Xrotation Yrotation
            JOINT BN_Tail_06
            {
              OFFSET 13.1048 0 0
              CHANNELS 6 Xposition Yposition Zposition Zrotation Xrotation Yrotation
              JOINT BN_Tail_07
              {
                OFFSET 11.869 0.000113964 0
                CHANNELS 6 Xposition Yposition Zposition Zrotation Xrotation Yrotation
                End Site
                {
                  OFFSET 0 0 0
                }
              }
            }
          }
        }
      }
    }
  }
}
MOTION
Frames:	10
Frame Time:	0.0333333
3.92544 3.97237 0 5.37303 -0.0014928 6.81405e-005 5.06197 -0.168311 7.27596e-012 8.05712 -2.57312 38.1669 14.8952 -2.38419e-007 -1.90735e-006 60.4342 -31.2512 -29.9225 14.3786 0 9.53674e-007 39.7966 1.73661 -19.1999 15.3325 3.55272e-015 -3.55271e-015 -23.5911 -12.3223 27.3102 11.0839 -1.90735e-006 -5.96047e-008 -67.743 0.0838766 2.30986 4.53921 1.45961 3.83302 -87.314 -13.605 -72.5979 4.48717 1.45926 -3.07319 93.2246 -18.421 99.6847 9.67523 -3.81471e-006 0 -40.1931 0.767002 0.753579 1.08197 -0.588671 2.98023e-008 -0.867302 -1.10701e-008 1.29804e-008 3.18259 0.278405 -2.98023e-008 2.34676 -1.73613e-008 -3.69392e-008 5.10923 0.673201 0 19.773 2.24684e-008 1.55402e-008 4.67587 -0.164094 7.27596e-012 179.125 0.690858 -11.246 13.1147 -4.44089e-016 1.19209e-007 -5.53061 -0.888465 18.9548 13.4995 -2.38419e-007 0 -2.80222 5.77867 29.3357 13.2851 -2.38419e-007 -9.53674e-007 -1.61902 -1.74751 48.3943 14.6528 0 3.8147e-006 -1.68247 -1.96962 45.7249 13.1048 -1.19209e-007 0 1.12464 0.863626 26.0834 11.869 2.22045e-016 3.8147e-006 -1.34861 5.924 -23.3681 
3.86537 3.97237 -1.3741e-014 5.37292 -0.0386674 -0.395186 5.06197 -0.168311 7.27592e-012 7.87112 -2.49596 38.3544 14.8952 -2.38419e-007 -1.90735e-006 60.1304 -31.3577 -29.4861 14.3786 1.42109e-014 9.53674e-007 40.0225 1.44979 -19.3642 15.3325 -3.55272e-015 -8.88178e-015 -23.0968 -12.2709 27.0122 11.0839 -1.90735e-006 -5.96047e-008 -67.7677 -0.0074888 2.34849 4.53984 1.45885 3.83546 -87.314 -13.605 -72.5979 4.48802 1.45885 -3.07567 93.2246 -18.421 99.6847 9.67523 -3.81471e-006 -4.44089e-016 -40.2939 0.830394 0.819872 1.08197 -0.588671 2.89463e-008 -0.867234 -1.03739e-008 1.42414e-008 3.20275 0.279225 -2.93867e-008 2.37203 -1.91448e-008 -4.03849e-008 5.12586 0.672476 9.77499e-010 11.3647 3.80024e-009 9.19478e-009 4.67587 -0.164094 7.27594e-012 179.125 0.689538 -11.2331 13.1147 -1.77636e-015 1.19209e-007 -5.53368 -0.892478 19.0239 13.4995 -2.38419e-007 4.44089e-016 -2.81058 5.77433 29.3808 13.2851 -2.38419e-007 -9.53674e-007 -1.62593 -1.74823 48.4652 14.6528 -2.10942e-014 3.8147e-006 -1.63427 -1.99864 45.1173 13.1048 -1.19209e-007 0 1.17001 0.812372 25.2358 11.869 1.55431e-015 3.8147e-006 -1.18735 5.78221 -23.8136 
3.70073 3.97237 -2.73033e-014 5.3692 -0.140285 -1.47634 5.06197 -0.168311 7.27596e-012 7.35626 -2.28463 38.8675 14.8952 -2.38419e-007 -1.90735e-006 59.3088 -31.6424 -28.2852 14.3786 0 9.53674e-007 40.6396 0.665508 -19.8196 15.3325 -3.55272e-015 1.77636e-015 -21.7582 -12.1248 26.2016 11.0839 -1.90735e-006 -5.96047e-008 -67.835 -0.257149 2.45702 4.54046 1.45811 3.83785 -87.314 -13.605 -72.5979 4.48885 1.45846 -3.0781 93.2246 -18.421 99.6847 9.67523 -3.81471e-006 -7.77156e-016 -40.5746 1.00881 1.00306 1.08197 -0.588671 2.67554e-008 -0.860312 -8.7443e-009 1.7425e-008 3.2574 0.281481 -2.83087e-008 2.45169 -2.34975e-008 -4.96343e-008 5.16944 0.670313 3.4659e-009 -8.03255 4.09868e-009 8.89564e-008 4.67587 -0.164094 7.27596e-012 179.125 0.685937 -11.1981 13.1147 -1.33227e-015 1.19209e-007 -5.54818 -0.911176 19.2094 13.4995 -2.38419e-007 8.88178e-016 -2.82798 5.76558 29.5176 13.2851 -2.38419e-007 -9.53674e-007 -1.64018 -1.75496 48.6588 14.6528 3.9746e-014 3.8147e-006 -1.50091 -2.08183 43.4689 13.1048 -1.19209e-007 7.10543e-015 1.28283 0.659977 22.9385 11.869 1.55431e-015 3.8147e-006 -0.767877 5.39166 -25.0246 
3.44016 3.97237 -4.4983e-014 5.36436 -0.30111 -3.1874 5.06197 -0.168311 7.27596e-012 6.5473 -1.95864 39.6871 14.8952 -2.38419e-007 -1.90735e-006 58.0507 -32.0619 -26.366 14.3786 3.55272e-015 9.53674e-007 41.5798 -0.568106 -20.5392 15.3325 -1.77636e-014 1.77636e-015 -19.6629 -11.8822 24.9274 11.0839 -1.90735e-006 -5.96047e-008 -67.9346 -0.65208 2.62666 4.54255 1.45558 3.84598 -87.314 -13.605 -72.5979 4.49166 1.45714 -3.08629 93.2246 -18.421 99.6847 9.67523 -3.81471e-006 3.33067e-015 -41.0114 1.28607 1.28381 1.08197 -0.588671 2.37167e-008 -0.853315 -7.04701e-009 2.17855e-008 3.34268 0.284984 -2.67732e-008 2.57412 -2.83384e-008 -6.35959e-008 5.23428 0.666528 6.87023e-009 -31.419 3.02616e-007 3.77329e-007 4.67587 -0.164094 7.27585e-012 179.123 0.680198 -11.143 13.1147 2.22045e-015 1.19209e-007 -5.5681 -0.940594 19.517 13.4995 -2.38419e-007 -1.77636e-015 -2.85871 5.74981 29.7397 13.2851 -2.38419e-007 -9.53674e-007 -1.66854 -1.76279 48.962 14.6528 7.68496e-013 3.8147e-006 -1.29828 -2.20483 40.8952 13.1048 -1.19209e-007 0 1.43409 0.411355 19.3579 11.869 1.77636e-015 3.8147e-006 -0.143813 4.79669 -26.909 
3.09482 3.97237 -1.73264e-013 5.35219 -0.513957 -5.45327 5.06197 -0.168311 7.27579e-012 5.47158 -1.5457 40.7804 14.8952 -2.38419e-007 -1.90735e-006 56.4577 -32.5629 -23.7862 14.3786 0 9.53674e-007 42.7788 -2.1894 -21.4902 15.3325 -3.55272e-015 3.55271e-015 -16.9072 -11.5524 23.2621 11.0839 -1.90735e-006 -5.96047e-008 -68.0635 -1.16285 2.84677 4.54467 1.45303 3.85419 -87.314 -13.605 -72.5979 4.4945 1.45581 -3.09457 93.2246 -18.421 99.6848 9.67523 -3.81471e-006 -4.44089e-015 -41.5875 1.64547 1.65251 1.08197 -0.588671 2.05048e-008 -0.83919 -2.0983e-008 1.01618e-006 3.45387 0.289526 -2.50781e-008 2.73695 -2.96604e-008 -7.05537e-008 5.31386 0.66088 1.03648e-008 -51.09 6.03293e-007 7.81977e-007 4.67587 -0.164094 7.27607e-012 179.124 0.672008 -11.0705 13.1147 4.44089e-016 1.19209e-007 -5.59354 -0.98075 19.9433 13.4995 -2.38419e-007 -8.88178e-016 -2.89792 5.7296 30.0492 13.2851 -2.38419e-007 -9.53674e-007 -1.69905 -1.77372 49.3586 14.6528 1.24767e-012 3.8147e-006 -1.0467 -2.36859 37.5402 13.1048 -1.19209e-007 7.10543e-015 1.57545 0.069187 14.69 11.869 5.32907e-015 3.8147e-006 0.622493 4.03592 -29.3716 
2.69027 3.97237 -2.6829e-013 5.32277 -0.762334 -8.11123 5.06197 -0.168311 7.27601e-012 4.20947 -1.08388 42.0691 14.8952 -2.38419e-007 -1.90735e-006 54.6849 -33.0676 -20.7158 14.3786 2.13163e-014 9.53674e-007 44.1108 -4.06667 -22.6113 15.3325 -1.06582e-014 -7.10543e-015 -13.7166 -11.1469 21.3384 11.0839 -1.90735e-006 -5.96047e-008 -68.2092 -1.75356 3.10068 4.54674 1.45052 3.86225 -87.314 -13.605 -72.5979 4.49729 1.4545 -3.10268 93.2247 -18.421 99.6848 9.67523 -3.81471e-006 0 -42.2554 2.05831 2.07788 1.08197 -0.588671 1.79573e-008 -0.825339 -7.99257e-009 2.95379e-008 3.5817 0.29477 -2.363e-008 2.93093 2.62939e-008 9.01051e-007 5.39871 0.652479 1.29372e-008 -59.2281 6.42064e-007 1.0656e-006 4.67587 -0.164094 7.2759e-012 179.122 0.662249 -10.9863 13.1147 -4.44089e-016 1.19209e-007 -5.62468 -1.02347 20.4696 13.4995 -2.38419e-007 1.33227e-015 -2.94968 5.70223 30.4317 13.2851 -2.38419e-007 -9.53674e-007 -1.73711 -1.7901 49.8199 14.6528 1.04028e-012 3.8147e-006 -0.771302 -2.54662 33.6846 13.1048 -1.19209e-007 -7.10543e-015 1.69438 -0.339038 9.3258 11.869 7.10543e-015 3.8147e-006 1.39904 3.19324 -32.2042 
2.22802 3.97237 -2.95622e-013 5.27483 -1.04392 -11.1472 5.06197 -0.168311 7.27601e-012 2.76978 -0.588409 43.5544 14.8952 -2.38419e-007 -1.90735e-006 52.7729 -33.5291 -17.1497 14.3786 1.06581e-014 9.53674e-007 45.5316 -6.1779 -23.9021 15.3325 -1.42109e-014 -7.10543e-015 -10.1145 -10.6621 19.181 11.0839 -1.90735e-006 -5.96047e-008 -68.3725 -2.40601 3.386 4.5504 1.44609 3.87652 -87.314 -13.605 -72.5979 4.50221 1.45218 -3.11708 93.2246 -18.421 99.6847 9.67523 -3.81471e-006 2.66454e-015 -43.0062 2.52214 2.5503 1.08197 -0.588671 1.66296e-008 -0.807852 -1.1908e-008 3.09875e-008 3.72445 0.300633 -2.27216e-008 3.15485 5.42228e-007 9.89433e-006 5.48439 0.644006 1.40131e-008 -45.2598 6.50302e-007 9.7484e-007 4.67587 -0.164094 7.27601e-012 179.124 0.650209 -10.8912 13.1147 -1.77636e-015 1.19209e-007 -5.6605 -1.08019 21.1042 13.4995 -2.38419e-007 -8.88178e-016 -3.00817 5.67075 30.8875 13.2851 -2.38419e-007 -9.53674e-007 -1.78084 -1.80286 50.333 14.6528 8.84404e-013 3.8147e-006 -0.484739 -2.74476 29.3724 13.1048 -1.19209e-007 0 1.70649 -0.811237 3.32481 11.869 5.77316e-015 3.8147e-006 2.21554 2.29704 -35.3622 
1.72045 3.97237 -1.63393e-013 5.20541 -1.34956 -14.4791 5.06197 -0.168311 7.27696e-012 1.18819 -0.085066 45.2008 14.8952 -2.38419e-007 -1.90735e-006 50.8003 -33.8894 -13.178 14.3786 1.24345e-014 9.53674e-007 46.9786 -8.45813 -25.3319 15.3325 -1.06582e-014 3.55271e-015 -6.22675 -10.1158 16.8579 11.0839 -1.90735e-006 -5.96047e-008 -68.5453 -3.1066 3.68766 4.55409 1.44161 3.89093 -87.314 -13.605 -72.5979 4.50718 1.44984 -3.13161 93.2246 -18.4209 99.6847 9.67523 -3.81471e-006 0 -43.8197 3.01202 3.05827 1.08197 -0.588671 1.68985e-008 -0.786662 -1.7704e-008 3.99317e-008 3.87774 0.306904 -2.25921e-008 3.40235 1.69739e-008 -1.12951e-007 5.56294 0.63225 1.31674e-008 -11.5678 -8.11458e-008 3.03541e-007 4.67587 -0.164094 7.27629e-012 179.123 0.636611 -10.788 13.1147 -1.77636e-015 1.19209e-007 -5.70217 -1.14434 21.8471 13.4995 -2.38419e-007 1.33227e-015 -3.08028 5.63074 31.4227 13.2851 -2.38419e-007 -9.53674e-007 -1.82758 -1.81828 50.8874 14.6528 7.88702e-013 3.8147e-006 -0.198901 -2.94345 24.7712 13.1048 -1.19209e-007 0 1.61913 -1.31058 -3.07772 11.869 1.06581e-014 3.8147e-006 2.9712 1.40101 -38.7459 
1.19664 3.97237 -1.37575e-013 5.11567 -1.66056 -17.9205 5.06197 -0.168311 7.27585e-012 -0.431575 0.388377 46.9151 14.8952 -2.38419e-007 -1.90735e-006 48.8978 -34.0912 -9.02995 14.3786 3.55272e-015 9.53674e-007 48.3394 -10.7619 -26.8306 15.3325 -7.10543e-015 -7.10543e-015 -2.29923 -9.5378 14.5168 11.0839 -1.90735e-006 -5.96046e-008 -68.7146 -3.8044 3.9959 4.55771 1.43722 3.90507 -87.314 -13.605 -72.5979 4.51207 1.44755 -3.14587 93.2246 -18.421 99.6847 9.67523 -3.81471e-006 -3.55271e-015 -44.6378 3.50363 3.56419 1.08197 -0.588671 1.86536e-008 -0.765885 -3.66822e-008 1.02719e-006 4.02805 0.313059 -2.32613e-008 3.66564 4.80473e-008 -1.08464e-007 5.62904 0.618334 1.06913e-008 27.7871 1.5993e-006 7.2094e-007 4.67587 -0.164094 7.27562e-012 179.123 0.621659 -10.683 13.1147 8.88178e-016 1.19209e-007 -5.74482 -1.21325 22.6708 13.4995 -2.38419e-007 -1.77636e-015 -3.15464 5.58849 32.0126 13.2851 -2.38419e-007 -9.53674e-007 -1.87768 -1.83247 51.4438 14.6528 7.34524e-013 3.8147e-006 0.0628554 -3.12924 20.1729 13.1048 -1.19209e-007 0 1.42068 -1.78824 -9.47138 11.869 8.88179e-015 3.8147e-006 3.62832 0.574228 -42.1321 
0.654814 3.97237 -3.9533e-013 4.99952 -1.97431 -21.4795 5.06197 -0.168311 7.27565e-012 -2.09058 0.827407 48.7092 14.8952 -2.38419e-007 -1.90735e-006 47.0565 -34.1084 -4.69713 14.3786 1.24345e-014 9.53674e-007 49.611 -13.0936 -28.3948 15.3325 -1.77636e-014 0 1.63846 -8.93783 12.1622 11.0839 -1.90735e-006 -5.96046e-008 -68.8859 -4.49665 4.29777 4.56276 1.43112 3.92471 -87.3139 -13.605 -72.5979 4.51885 1.44436 -3.16567 93.2246 -18.421 99.6848 9.67523 -3.81471e-006 5.32907e-015 -45.457 3.99099 4.07002 1.08197 -0.588671 2.13976e-008 -0.737907 -2.76957e-008 2.33647e-008 4.17985 0.319274 -2.4508e-008 3.93857 2.14941e-007 1.89464e-006 5.67198 0.601933 7.27815e-009 61.0912 9.99843e-006 4.16277e-006 4.67587 -0.164094 7.27521e-012 179.123 0.605182 -10.5764 13.1147 -2.66454e-015 1.19209e-007 -5.78621 -1.28792 23.5894 13.4995 -2.38419e-007 1.33227e-015 -3.23803 5.53956 32.6713 13.2851 -2.38419e-007 -9.53674e-007 -1.92514 -1.8457 51.9993 14.6528 6.93001e-013 3.8147e-006 0.303934 -3.29808 15.6118 13.1048 -1.19209e-007 0 1.1216 -2.22152 -15.8186 11.869 8.88179e-016 3.8147e-006 4.18936 -0.167464 -45.4981 
